<?xml version="1.0" encoding="utf-8"?>
<!-- Generator: Adobe Illustrator 19.1.0, SVG Export Plug-In . SVG Version: 6.00 Build 0)  -->
<svg version="1.1" id="レイヤー_1" xmlns="http://www.w3.org/2000/svg" xmlns:xlink="http://www.w3.org/1999/xlink" x="0px"
	 y="0px" viewBox="0 0 800 212.2" style="enable-background:new 0 0 800 212.2;" xml:space="preserve">
<style type="text/css">
	.st0{fill:#006C52;}
</style>
<path class="st0" d="M170.6,12c0.4,2.5,1.8,11.7,2,18.1c0,1.3-0.9,2.7-1.9,2.8c-0.4,0.1-1.3,0.3-2.4-1.2c-1.2-1.7-3.3-9-7.2-15.8
	c-1.8-3.3-5.8-7.1-12.3-8.5C142,6,134.5,4.3,120.2,4.3c-4.9,0-16.8,0-27.7,2.8c-28,7.4-70,39.7-71.4,94.4
	c-1.6,61.6,48,107.1,98.7,106.5c20.1-0.2,31.4-5.6,36.6-8.2c7.1-3.6,10.2-7.5,12-11.3c2.3-4.4,4-10.7,5-14.7
	c0.9-3.3,1.9-3.1,3.1-2.8c0.8,0.1,1.3,1.1,1.3,1.7c0.1,1.4,0.1,11.3-1.3,19.1c-0.5,3.2-2,4.4-3.8,5.6c-3,2.1-33.1,16.4-69.3,14.5
	C39.9,208.7,2.4,160,0.1,109.5C-2.5,50,38.7,16.9,69.9,5.8c28.3-10,79.1-5.4,96.4,1.1C170.3,8.5,170.6,12,170.6,12z M315.6,204.8
	c-4.8-1.9-7.3-3.3-9.2-4.8c-3-2.4-3.1-6.6-3.1-6.6s0-64.9,0-69.8c0-6.2-0.1-12.2-2.3-21.1c-5.4-22.1-20.8-32.4-43.9-31.3
	c-25.4,1.2-34.9,14.3-37.9,16.4c-2.5,1.7-4.4,1-5-1.6c0-39.1,0-74.2,0-75.6c0.1-2.4-1.3-2.9-2.4-3.1c-7.1-1.1-29.5-0.9-29.5-0.9
	c-1,0.1-1.4,0.9-1.5,1.6c0,1,0.6,1.8,1.8,2.3c3.1,1.1,5.9,1.8,9.5,3c4.3,1.4,4.2,6.3,4.2,6.3s0,173.8,0,173.9
	c-0.1,3.9-2.9,6.8-7,8.7c-4,1.8-4.7,1.8-7.6,2.7c-2,0.5-2.5,3.5,0.9,3.6c3.9,0,2.5-0.3,9.8-0.9c8.9-0.6,17.6-0.8,26.3,0.3
	c3.8,0.4,6.5,0.6,8.9,0.5c2.1-0.1,2.4-2.5,0.4-3.1c-2.6-0.9-6.2-1.5-10.5-4.2c-3.3-2.1-3.3-6.8-3.3-6.8s0-43,0-87.5
	c3.1-13.9,15-30.6,35.9-31.3c36.4-1.4,35.9,33.2,35.9,33.2s0,80.6,0,84.6c0,4-2.5,6.2-4.3,7.3c-1.8,1.3-4.3,2.3-8.9,4
	c-3.1,1.2-2.8,3.9,0.8,3.9c2.4,0,5-0.3,9.3-0.6c6.1-0.5,16.4-0.5,23.4,0.1c6.6,0.6,7.4,0.4,9.5,0.5
	C318.2,208.6,318.8,206,315.6,204.8z M326.2,93.5c2.3-5,11.3-15.1,26.7-18.9c7.4-1.7,16.8-3.3,31.2-0.2c24,5.4,32.1,28.8,32.1,40.5
	v79.7c0,0,0,3.6,2.9,6.8c2.6,2.9,3.1,3.3,5.6,5c2.7,1.9,0.6,3.9-2,3.8c-2.3-0.2-13.9-1.7-18.3-9.7c-0.5-1-2.3-3.5-3-4.7
	c-1-1.4-2.9-2-5.1-0.4c-2.1,1.5-16.7,11.5-26.6,13.6c-3.9,0.9-12.7,3.9-22.1,2.9c-6.2-0.6-15.2-1.4-24.7-11.7
	c-10.3-11.4-7.5-31.6-5.4-38.4c3.2-10.3,8.2-17.5,18.1-23.1c3.8-2.1,7.2-4,13.3-6.2c15.6-5.7,33.5-11.7,36.4-12.9
	c4.7-1.9,5.3-2.5,8.6-4.8c2-1.4,3.6-4.2,3.8-5.9c0.2-2.9,0.3-14-3.3-20.1c-3.2-5.4-9.3-13.2-25.5-13.5c-14.3-0.3-22,10.9-23.7,14.5
	c-2.5,4.7-6.6,13.1-11.9,14C326.9,105.1,323.3,100,326.2,93.5z M399.3,121.8c0-3-2.7-4.1-6.5-2.7c-7,2.5-12.3,5-17.2,7.2
	c-4.9,2.3-9.8,4.8-16.5,9.5c-17.6,12.1-23.2,22.8-24.5,34.1c-1.2,10.9,1.2,23.2,13.2,31.1c10,6.6,23.2,4.5,29.2,2
	c13.6-5.8,15.7-9.9,19.1-15.3c1.7-2.8,3.3-7.7,3.3-15.6C399.3,164.3,399.3,121.8,399.3,121.8 M539.7,90.8c1.5,3.1,0.8,8.6-2.3,10.4
	c-3,1.7-5.9,0.3-8.5-2c-2.6-2.3-6-8.6-10.7-13.3c-2.8-2.8-9.5-9.1-22.8-9.7c-10.2-0.4-23.1,2.1-33.8,17.2
	c-9.8,13.5-12.4,32.2-13,39.7c-1.2,15.7,0.3,34.2,7.8,47.8c5,9.2,16,28.3,42.3,28.5c12.3,0,26.9-2.5,37-18.7c3.5-5.7,4.8-8.6,8-9.4
	c1.8-0.5,5.3,0.1,4.9,4.5c-0.3,4.9-6,10.6-14.8,16c-7,4.2-20.2,10.7-37.6,10.3c-16.1-0.4-39-7.5-52.4-26.8
	c-7.3-10.5-13.1-20.8-13.5-43.4c-1-43.3,35.8-68,64.5-69.2c23.8-1,34,7.6,36.7,9.3C536.4,85.6,539.3,90.1,539.7,90.8z M663.1,92.6
	c5.8,5.3,20.1,22.1,20.1,50.7c0,24.9-12.3,41.7-23.6,52.1C645.4,208.6,627,212,614.8,212c-9.8,0-26.8-1.7-44.4-16.6
	c-7.5-6.3-23.4-23.5-23.4-52.8c0-24.2,13.8-42.9,22.4-51c13.3-12.7,28.7-18,46.7-18C640.9,73.6,653.4,83.8,663.1,92.6z M576.9,98.3
	c-4.5,7.2-11.9,20.8-11.9,46.3c0,29.8,13.9,48.2,17.3,51.4c3.5,3.3,12.2,13.3,33.4,13.3c24.9,0,33-14.7,37.1-20.2
	c7.3-10,12.5-27.5,12.5-45.7c0-19.6-4.5-31.5-11.3-43.2c-6.9-11.7-19-23.4-38.7-23.4C592.7,76.9,581.5,91.2,576.9,98.3z
	 M742.2,203.9c-1.1-0.6-1.6-0.2-3,0.4c-3.1,1.3-8,2.1-10.1,2c-5.6-0.3-9.3-3.9-11.9-7.2c-1.3-1.8-3.1-8.4-3.1-13c0-3,0-56.7,0-96.7
	c0-0.2,0.1-0.4,0.1-0.5c0-3.6,3.4-4.2,4.5-4.2c1.4,0,11.3,0,12.7,0c1.4,0,2.6,0.2,3.9-0.6c3.4-2.4,4.2-5.3,4.2-6.2
	c0-1-0.8-1.5-1.7-1.5c-1,0-8.5,0-15.4,0c-7.1,0-7.9-3.8-7.9-8.6c0-10.2,0-17.7,0-20.4c0-2.5-1.8-4.1-4.8-0.1
	c-6.5,8.8-18.8,25.7-23.9,33.6c-1.4,2.1-0.8,3.8,2,3.9c3,0.2,4.8,0.3,6.1,0.5c1.6,0.3,2.5,1.5,2.5,2.8c0,5.1,0,81.8,0,91.6
	c0,6.9,1.6,13.5,4.3,18.4c2.8,4.9,6.9,9.3,11.3,11.3c4.6,2.1,13.7,2.6,19.9,1.2c5.3-1.2,8.9-3.5,9.9-4.3
	C742.2,205.7,742.7,204.2,742.2,203.9z M799.8,203.9c-1.1-0.6-1.6-0.2-3,0.4c-3.1,1.3-8,2.1-10.1,2c-5.6-0.3-9.3-3.9-11.9-7.2
	c-1.3-1.8-3.1-8.4-3.1-13c0-3,0-56.7,0-96.7c0-0.2,0-0.4,0-0.5c0-3.6,3.4-4.2,4.5-4.2c1.5,0,13.1,0,14.5,0c1.3,0,2.5,0.2,3.8-0.6
	c3.4-2.4,4.2-5.3,4.2-6.2c0-1-0.8-1.5-1.8-1.5c-1,0-10.3,0-17.3,0s-7.9-3.8-7.9-8.6c0-10.2,0-17.7,0-20.4c0-2.5-1.8-4.1-4.8-0.1
	c-6.5,8.8-18.8,25.7-23.9,33.6c-1.4,2.1-0.8,3.8,2,3.9c3,0.2,4.9,0.3,6.2,0.5c1.6,0.3,2.5,1.5,2.5,2.8c0,5.1,0,81.8,0,91.6
	c0,6.9,1.6,13.5,4.4,18.4c2.8,4.9,6.9,9.3,11.3,11.3c4.6,2.1,13.7,2.6,19.9,1.2c5.1-1.2,8.9-3.5,9.9-4.3
	C799.8,205.7,800.3,204.2,799.8,203.9z"/>
</svg>
